<svg xmlns="http://www.w3.org/2000/svg" viewBox="0 0 64 64" width="64" height="64">
  <defs>
    <linearGradient id="g" x1="0" y1="0" x2="1" y2="1">
      <stop offset="0%" stop-color="#1a56db"/>
      <stop offset="50%" stop-color="#3b82f6"/>
      <stop offset="100%" stop-color="#06b6d4"/>
    </linearGradient>
    <linearGradient id="gold" x1="0" y1="0" x2="0" y2="1">
      <stop offset="0%" stop-color="#fbbf24"/>
      <stop offset="50%" stop-color="#f59e0b"/>
      <stop offset="100%" stop-color="#d97706"/>
    </linearGradient>
  </defs>
  <rect width="64" height="64" rx="14" fill="url(#g)"/>
  <path d="M32 8 C28 8 24 14 22 20 C20 26 18 30 18 34 C18 40 20 44 22 46 C24 48 24 48 26 48 C26 46 27 44 29 44 C31 44 32 46 32 46 C32 46 33 44 35 44 C37 44 38 46 38 48 C40 48 40 48 42 46 C44 44 46 40 46 34 C46 30 44 26 42 20 C40 14 36 8 32 8Z" fill="url(#gold)"/>
  <path d="M32 10 C29 10 26 15 24 20 C22 25 20 29 20 33 C20 38 22 42 24 44 C25 45 25 46 27 46 C27 44 28 43 29 43 C30 43 31 44 32 44 C33 44 34 43 35 43 C36 43 37 44 37 46 C39 46 39 45 40 44 C42 42 44 38 44 33 C44 29 42 25 40 20 C38 15 35 10 32 10Z" fill="#fef3c7" opacity="0.6"/>
  <circle cx="32" cy="24" r="6" fill="#fbbf24"/>
  <text x="32" y="57" text-anchor="middle" fill="white" font-size="7" font-weight="bold" font-family="Arial">2026</text>
</svg>